<svg xmlns="http://www.w3.org/2000/svg" version="1.1" xmlns:xlink="http://www.w3.org/1999/xlink" xmlns:svgjs="http://svgjs.dev/svgjs" width="2000" height="398" viewBox="0 0 2000 398"><g transform="matrix(1,0,0,1,-1.2121212121212466,-1.1878687536770656)"><svg viewBox="0 0 396 79" data-background-color="#ffffff" preserveAspectRatio="xMidYMid meet" height="398" width="2000" xmlns="http://www.w3.org/2000/svg" xmlns:xlink="http://www.w3.org/1999/xlink"><g id="tight-bounds" transform="matrix(1,0,0,1,0.2400000000000091,0.23578299382032242)"><svg viewBox="0 0 395.52 78.52843401235937" height="78.52843401235937" width="395.52"><g><svg viewBox="0 0 519.1632362556935 103.07715397438352" height="78.52843401235937" width="395.52"><g><rect width="4.304221236939727" height="80.60045418378805" x="108.07142015765504" y="11.238349895297738" fill="#6a11cb" opacity="1" stroke-width="0" stroke="transparent" fill-opacity="1" class="rect-yte-0" data-fill-palette-color="primary" rx="1%" id="yte-0" data-palette-color="#6a11cb"></rect></g><g transform="matrix(1,0,0,1,123.64323625569352,11.438848537545965)"><svg viewBox="0 0 395.52 80.19945689929159" height="80.19945689929159" width="395.52"><g id="textblocktransform"><svg viewBox="0 0 395.52 80.19945689929159" height="80.19945689929159" width="395.52" id="textblock"><g><svg viewBox="0 0 395.52 47.72867577008574" height="47.72867577008574" width="395.52"><g transform="matrix(1,0,0,1,0,0)"><svg width="395.52" viewBox="0.3 -37.5 316.12 38" height="47.72867577008574" data-palette-color="#6a11cb"><g class="wordmark-text-0" data-fill-palette-color="primary" id="text-0"><path d="M13.1-34.05L21.5-9.05 30.2-34.05 26.3-34.05 26.3-35 33.95-35 33.95-34.05 31.6-34.05 19.55 0.5 15.35 0.5 2.6-34.05 0.3-34.05 0.3-35 16.65-35 16.65-34.05 13.1-34.05ZM42.1-27.25Q39.45-27.25 38.32-28.6 37.2-29.95 37.2-31.95 37.2-33.95 38.42-35.25 39.65-36.55 42.15-36.55 44.65-36.55 45.95-35.38 47.25-34.2 47.25-32.02 47.25-29.85 46-28.55 44.75-27.25 42.1-27.25ZM34.55-22.9L34.55-23.8 46.8-23.8 46.8-0.9 49.6-0.9 49.6 0 34.75 0 34.75-0.9 37.5-0.9 37.5-22.9 34.55-22.9ZM52.35 0.5L51.75 0.5 51.75-8.45 52.35-8.45Q53.65-4.1 55.85-2.35 58.05-0.6 61.35-0.6L61.35-0.6Q66.45-0.6 66.45-3.85L66.45-3.85Q66.45-5.25 65.2-5.95L65.2-5.95Q63.25-7.05 60.2-7.65L60.2-7.65Q56.8-8.55 54.5-10.05L54.5-10.05Q51.75-11.85 51.75-15.75 51.75-19.65 54.15-21.98 56.55-24.3 60.55-24.3L60.55-24.3Q63-24.3 65.59-23.15L65.59-23.15Q66.55-22.75 67.05-22.75 67.55-22.75 67.9-23.1 68.25-23.45 68.75-24.4L68.75-24.4 69.3-24.4 69.3-16.75 68.7-16.75Q66.15-23.25 60.8-23.25L60.8-23.25Q58.45-23.25 57.3-22.43 56.15-21.6 56.15-20.35L56.15-20.35Q56.15-19.6 56.5-19.18 56.85-18.75 57.05-18.55 57.25-18.35 57.7-18.13 58.15-17.9 58.45-17.78 58.75-17.65 59.37-17.45 60-17.25 60.3-17.2L60.3-17.2Q63.7-16.35 65.2-15.73 66.7-15.1 68.05-14.2L68.05-14.2Q70.8-12.3 70.8-8.08 70.8-3.85 68.3-1.68 65.8 0.5 61.45 0.5L61.45 0.5Q58.35 0.5 55.45-0.95L55.45-0.95Q54.85-1.35 54.5-1.35L54.5-1.35Q53.4-1.35 52.35 0.5L52.35 0.5ZM86.29-23.4L86.29-23.4Q84.09-23.4 83.14-21 82.19-18.6 82.19-13.05L82.19-13.05 82.19-10.45Q82.19-5.5 83.29-3.35 84.39-1.2 87.34-1.2 90.29-1.2 92.04-3.2 93.79-5.2 94.29-7.75L94.29-7.75 95.19-7.65Q94.24-3.35 91.69-1.45L91.69-1.45Q89.09 0.5 84.54 0.5L84.54 0.5Q78.74 0.5 75.64-2.63 72.54-5.75 72.54-11.78 72.54-17.8 76.07-21.05 79.59-24.3 85.89-24.3L85.89-24.3Q90.34-24.3 92.69-22.58 95.04-20.85 95.04-18.25 95.04-15.65 93.92-14.45 92.79-13.25 90.82-13.25 88.84-13.25 87.64-14.3 86.44-15.35 86.44-17.4L86.44-17.4Q86.44-18.3 86.69-19.2L86.69-19.2 88.34-19.2Q88.69-20.2 88.69-21L88.69-21Q88.69-23.4 86.29-23.4ZM112.59-9.85L112.59-9.85 112.59-14.1Q112.59-18.95 112.07-21.18 111.54-23.4 109.64-23.4L109.64-23.4Q108.54-23.4 107.87-22.78 107.19-22.15 106.89-20.7L106.89-20.7Q106.44-18.45 106.44-13.85L106.44-13.85 106.44-9.95Q106.44-4.5 106.77-3.4 107.09-2.3 107.44-1.6L107.44-1.6Q107.99-0.4 109.59-0.4L109.59-0.4Q111.54-0.4 112.14-2.65L112.14-2.65Q112.59-4.25 112.59-9.85ZM109.49 0.5Q103.24 0.5 100.04-2.7 96.84-5.9 96.84-11.88 96.84-17.85 100.27-21.08 103.69-24.3 109.89-24.3 116.09-24.3 119.14-21.33 122.19-18.35 122.19-12.25L122.19-12.25Q122.19 0.5 109.49 0.5L109.49 0.5ZM152.84-0.9L152.84 0 141.44 0 140.89-3.65Q140.09-1.65 138.51-0.58 136.94 0.5 133.84 0.5L133.84 0.5Q126.09 0.5 126.09-7.85L126.09-7.85 126.09-22.9 123.29-22.9 123.29-23.8 135.39-23.8 135.39-6.65Q135.39-3.65 135.81-2.7 136.24-1.75 137.51-1.75 138.79-1.75 139.79-3.3 140.79-4.85 140.79-7.6L140.79-7.6 140.79-22.9 138.49-22.9 138.49-23.8 150.09-23.8 150.09-0.9 152.84-0.9ZM155.59 0.5L154.99 0.5 154.99-8.45 155.59-8.45Q156.89-4.1 159.09-2.35 161.29-0.6 164.59-0.6L164.59-0.6Q169.69-0.6 169.69-3.85L169.69-3.85Q169.69-5.25 168.44-5.95L168.44-5.95Q166.49-7.05 163.44-7.65L163.44-7.65Q160.04-8.55 157.74-10.05L157.74-10.05Q154.99-11.85 154.99-15.75 154.99-19.65 157.39-21.98 159.79-24.3 163.79-24.3L163.79-24.3Q166.24-24.3 168.84-23.15L168.84-23.15Q169.79-22.75 170.29-22.75 170.79-22.75 171.14-23.1 171.49-23.45 171.99-24.4L171.99-24.4 172.54-24.4 172.54-16.75 171.94-16.75Q169.39-23.25 164.04-23.25L164.04-23.25Q161.69-23.25 160.54-22.43 159.39-21.6 159.39-20.35L159.39-20.35Q159.39-19.6 159.74-19.18 160.09-18.75 160.29-18.55 160.49-18.35 160.94-18.13 161.39-17.9 161.69-17.78 161.99-17.65 162.61-17.45 163.24-17.25 163.54-17.2L163.54-17.2Q166.94-16.35 168.44-15.73 169.94-15.1 171.29-14.2L171.29-14.2Q174.04-12.3 174.04-8.08 174.04-3.85 171.54-1.68 169.04 0.5 164.69 0.5L164.69 0.5Q161.59 0.5 158.69-0.95L158.69-0.95Q158.09-1.35 157.74-1.35L157.74-1.35Q156.64-1.35 155.59 0.5L155.59 0.5ZM195.03-34.55L195.03-34.55Q187.28-34.55 187.28-19.6L187.28-19.6 187.28-15.65Q187.28-8.55 189.33-4.53 191.38-0.5 195.38-0.5L195.38-0.5Q200.88-0.5 205.48-11.2L205.48-11.2 206.38-11.2 206.03-0.05 205.48-0.05Q205.18-0.6 204.93-0.83 204.68-1.05 204.21-1.05 203.73-1.05 200.58-0.28 197.43 0.5 194.18 0.5L194.18 0.5Q186.03 0.5 181.56-3.9 177.08-8.3 177.08-17.13 177.08-25.95 181.76-30.75 186.43-35.55 194.33-35.55L194.33-35.55Q197.38-35.55 200.31-34.77 203.23-34 203.73-34 204.23-34 204.48-34.23 204.73-34.45 205.03-35L205.03-35 205.58-35 205.98-24.15 205.08-24.15Q202.83-29.2 200.46-31.88 198.08-34.55 195.03-34.55ZM226.18-9.85L226.18-9.85 226.18-14.1Q226.18-18.95 225.66-21.18 225.13-23.4 223.23-23.4L223.23-23.4Q222.13-23.4 221.46-22.78 220.78-22.15 220.48-20.7L220.48-20.7Q220.03-18.45 220.03-13.85L220.03-13.85 220.03-9.95Q220.03-4.5 220.36-3.4 220.68-2.3 221.03-1.6L221.03-1.6Q221.58-0.4 223.18-0.4L223.18-0.4Q225.13-0.4 225.73-2.65L225.73-2.65Q226.18-4.25 226.18-9.85ZM223.08 0.5Q216.83 0.5 213.63-2.7 210.43-5.9 210.43-11.88 210.43-17.85 213.86-21.08 217.28-24.3 223.48-24.3 229.68-24.3 232.73-21.33 235.78-18.35 235.78-12.25L235.78-12.25Q235.78 0.5 223.08 0.5L223.08 0.5ZM247.33-10.35Q247.33-5.1 247.88-3.38 248.43-1.65 249.9-1.65 251.38-1.65 252.45-2.95 253.53-4.25 253.53-6.8L253.53-6.8 253.53-17.7Q253.53-19.85 252.68-21.35 251.83-22.85 250.18-22.85 248.53-22.85 247.93-20.65 247.33-18.45 247.33-12.95L247.33-12.95 247.33-10.35ZM265.28 0L254.18 0 253.63-3.5Q251.93 0.5 246.73 0.5L246.73 0.5Q242.43 0.5 240.05-2.6 237.68-5.7 237.68-11.85L237.68-11.85Q237.68-24.3 247.58-24.3L247.58-24.3Q251.98-24.3 253.38-21.85L253.38-21.85 253.38-36.6 250.33-36.6 250.33-37.5 262.83-37.5 262.83-0.9 265.28-0.9 265.28 0ZM279.73 0.5Q273.28 0.5 270.05-2.83 266.83-6.15 266.83-12.08 266.83-18 270.45-21.15 274.08-24.3 279.68-24.3L279.68-24.3Q291.03-24.3 290.58-12.9L290.58-12.9 276.48-12.9 276.48-10.95Q276.48-6.05 277.73-3.55 278.98-1.05 282.08-1.05L282.08-1.05Q287.88-1.05 289.68-7.25L289.68-7.25 290.58-7.1Q289.63-3.5 287.15-1.5 284.68 0.5 279.73 0.5L279.73 0.5ZM276.53-16.35L276.53-13.9 281.68-13.9 281.68-16.35Q281.68-20.4 281.2-21.88 280.73-23.35 279.3-23.35 277.88-23.35 277.2-21.78 276.53-20.2 276.53-16.35L276.53-16.35ZM309.07-22.4L309.07-22.4Q307.22-22.4 305.82-20 304.42-17.6 304.42-14.3L304.42-14.3 304.42-0.9 307.97-0.9 307.97 0 292.37 0 292.37-0.9 295.12-0.9 295.12-22.9 292.37-22.9 292.37-23.8 304.42-23.8 304.42-19Q305.07-21.55 306.92-22.93 308.77-24.3 311.12-24.3 313.47-24.3 314.95-22.98 316.42-21.65 316.42-19.23 316.42-16.8 315.32-15.5 314.22-14.2 311.95-14.2 309.67-14.2 308.6-15.7 307.52-17.2 308.32-19.85L308.32-19.85 310.12-19.85Q311.37-22.4 309.07-22.4Z" fill="#6a11cb" data-fill-palette-color="primary"></path></g></svg></g></svg></g><g transform="matrix(1,0,0,1,0,58.9962706311845)"><svg viewBox="0 0 232.209792 21.203186268107093" height="21.203186268107093" width="232.209792"><g transform="matrix(1,0,0,1,0,0)"><svg width="232.209792" viewBox="4.5 -37 532.2 48.6" height="21.203186268107093" data-palette-color="#332885"><path d="M9 0L4.5 0 4.5-35 11.15-35 20.85-12.85 30.4-35 37.2-35 37.2 0 32.45 0 32.45-28.95 23.1-7.9 18.4-7.9 9-28.95 9 0ZM55.65 0.6L55.65 0.6Q52.4 0.6 49.75-1.05 47.1-2.7 45.52-5.73 43.95-8.75 43.95-12.85L43.95-12.85Q43.95-16.75 45.52-19.85 47.1-22.95 49.87-24.78 52.65-26.6 56.25-26.6L56.25-26.6Q58.5-26.6 60.32-25.83 62.15-25.05 63.5-23.9L63.5-23.9 63.5-26 67.6-26 67.6-6.3Q67.6-4.4 68.52-3.83 69.45-3.25 70.55-3.25L70.55-3.25 69.6 0.25Q64.8 0.25 63.8-3.65L63.8-3.65Q62.65-2.05 60.67-0.73 58.7 0.6 55.65 0.6ZM56.65-3.4L56.65-3.4Q58.55-3.4 60.25-4.33 61.95-5.25 63.1-6.65L63.1-6.65 63.1-20.6Q61.75-21.55 60.12-22.13 58.5-22.7 56.7-22.7L56.7-22.7Q54.3-22.7 52.47-21.48 50.65-20.25 49.6-18.07 48.55-15.9 48.55-13L48.55-13Q48.55-10.2 49.6-8.03 50.65-5.85 52.5-4.63 54.35-3.4 56.65-3.4ZM85.9 0.6L85.9 0.6Q82.7 0.6 80.05-1.05 77.4-2.7 75.85-5.73 74.3-8.75 74.3-12.85L74.3-12.85Q74.3-16.8 75.87-19.9 77.45-23 80.07-24.8 82.7-26.6 85.85-26.6L85.85-26.6Q88.45-26.6 90.32-25.55 92.2-24.5 93.25-23.4L93.25-23.4 93.25-37 97.75-37 97.75-6.3Q97.75-4.4 98.67-3.83 99.6-3.25 100.7-3.25L100.7-3.25 99.75 0.25Q95 0.25 93.95-3.55L93.95-3.55Q92.85-2 90.87-0.7 88.9 0.6 85.9 0.6ZM86.9-3.4L86.9-3.4Q88.75-3.4 90.42-4.28 92.1-5.15 93.25-6.55L93.25-6.55 93.25-19.45Q92.3-20.65 90.6-21.68 88.9-22.7 86.85-22.7L86.85-22.7Q84.45-22.7 82.65-21.4 80.85-20.1 79.87-17.93 78.9-15.75 78.9-13L78.9-13Q78.9-10.25 79.95-8.08 81-5.9 82.82-4.65 84.65-3.4 86.9-3.4ZM116.59 0.6L116.59 0.6Q110.99 0.6 107.72-2.98 104.44-6.55 104.44-13L104.44-13Q104.44-16.9 105.92-19.98 107.39-23.05 110.04-24.83 112.69-26.6 116.19-26.6L116.19-26.6Q119.94-26.6 122.42-24.98 124.89-23.35 126.14-20.6 127.39-17.85 127.39-14.55L127.39-14.55Q127.39-12.8 127.24-11.15L127.24-11.15 109.04-11.15Q109.49-7.5 111.59-5.45 113.69-3.4 117.14-3.4L117.14-3.4Q119.39-3.4 121.19-3.88 122.99-4.35 124.64-5.1L124.64-5.1 125.69-1.25Q123.89-0.45 121.64 0.08 119.39 0.6 116.59 0.6ZM108.99-14.8L108.99-14.8 123.24-14.8Q123.24-18.6 121.34-20.65 119.44-22.7 116.09-22.7L116.09-22.7Q113.19-22.7 111.29-20.68 109.39-18.65 108.99-14.8ZM157.49 0.6L157.49 0.6Q153.74 0.6 151.56-1.88 149.39-4.35 149.39-8.95L149.39-8.95 149.39-21.15 144.89-21.15 144.89-25.05 149.49-25.05 150.44-33.25 153.89-33.25 153.89-25.05 161.09-25.05 161.09-21.15 153.89-21.15 153.89-8.6Q153.89-5.7 155.11-4.55 156.34-3.4 158.04-3.4L158.04-3.4Q159.29-3.4 160.41-3.8 161.54-4.2 162.49-4.75L162.49-4.75 163.74-1.15Q162.74-0.55 161.04 0.03 159.34 0.6 157.49 0.6ZM172.74 0L168.24 0 168.24-37 172.74-37 172.74-21.85Q174.14-23.9 176.29-25.25 178.44-26.6 181.34-26.6L181.34-26.6Q185.74-26.6 187.91-23.95 190.09-21.3 190.09-16.95L190.09-16.95 190.09 0 185.59 0 185.59-16.45Q185.59-19.25 184.29-20.95 182.99-22.65 180.64-22.65L180.64-22.65Q178.34-22.65 176.26-21.03 174.19-19.4 172.74-17.2L172.74-17.2 172.74 0ZM208.23 0.6L208.23 0.6Q202.63 0.6 199.36-2.98 196.08-6.55 196.08-13L196.08-13Q196.08-16.9 197.56-19.98 199.03-23.05 201.68-24.83 204.33-26.6 207.83-26.6L207.83-26.6Q211.58-26.6 214.06-24.98 216.53-23.35 217.78-20.6 219.03-17.85 219.03-14.55L219.03-14.55Q219.03-12.8 218.88-11.15L218.88-11.15 200.68-11.15Q201.13-7.5 203.23-5.45 205.33-3.4 208.78-3.4L208.78-3.4Q211.03-3.4 212.83-3.88 214.63-4.35 216.28-5.1L216.28-5.1 217.33-1.25Q215.53-0.45 213.28 0.08 211.03 0.6 208.23 0.6ZM200.63-14.8L200.63-14.8 214.88-14.8Q214.88-18.6 212.98-20.65 211.08-22.7 207.73-22.7L207.73-22.7Q204.83-22.7 202.93-20.68 201.03-18.65 200.63-14.8ZM250.43 0L245.48 0 237.28-24.8 241.43-26.25 248.13-5.1 254.23-24.15 259.08-24.15 265.03-5.1 271.68-26.25 275.68-24.8 267.43 0 262.48 0 256.48-19.35 250.43 0ZM291.38 0.6L291.38 0.6Q287.68 0.6 284.73-1.13 281.78-2.85 280.1-5.93 278.43-9 278.43-13L278.43-13Q278.43-17.2 280.13-20.25 281.82-23.3 284.78-24.95 287.73-26.6 291.38-26.6L291.38-26.6Q295.03-26.6 297.95-24.95 300.88-23.3 302.6-20.28 304.32-17.25 304.32-13.1L304.32-13.1Q304.32-8.95 302.63-5.88 300.93-2.8 298-1.1 295.07 0.6 291.38 0.6ZM291.38-3.4L291.38-3.4Q295.32-3.4 297.53-6.08 299.73-8.75 299.73-13L299.73-13Q299.73-15.6 298.63-17.78 297.53-19.95 295.65-21.28 293.78-22.6 291.38-22.6L291.38-22.6Q287.43-22.6 285.23-20 283.03-17.4 283.03-13.1L283.03-13.1Q283.03-10.5 284.13-8.28 285.23-6.05 287.1-4.73 288.98-3.4 291.38-3.4ZM314.82 0L310.32 0 310.32-26 314.67-26 314.67-20.35Q315.32-22 316.42-23.43 317.52-24.85 319.17-25.73 320.82-26.6 323.02-26.6L323.02-26.6Q323.77-26.6 324.52-26.53 325.27-26.45 325.77-26.3L325.77-26.3 324.42-21.65Q323.47-22.05 322.17-22.05L322.17-22.05Q320.32-22.05 318.65-21 316.97-19.95 315.9-17.75 314.82-15.55 314.82-12.15L314.82-12.15 314.82 0ZM338.17 0.6L338.17 0.6Q335.87 0.6 334.02-0.28 332.17-1.15 331.09-3.1 330.02-5.05 330.02-8.15L330.02-8.15 330.02-37 334.52-37 334.52-8.6Q334.52-5.9 335.64-4.6 336.77-3.3 338.77-3.3L338.77-3.3Q339.72-3.3 340.64-3.53 341.57-3.75 342.22-4.05L342.22-4.05 343.32-0.4Q342.42 0 341.09 0.3 339.77 0.6 338.17 0.6ZM356.67 0.6L356.67 0.6Q353.47 0.6 350.82-1.05 348.17-2.7 346.62-5.73 345.07-8.75 345.07-12.85L345.07-12.85Q345.07-16.8 346.64-19.9 348.22-23 350.84-24.8 353.47-26.6 356.62-26.6L356.62-26.6Q359.22-26.6 361.09-25.55 362.97-24.5 364.02-23.4L364.02-23.4 364.02-37 368.52-37 368.52-6.3Q368.52-4.4 369.44-3.83 370.37-3.25 371.47-3.25L371.47-3.25 370.52 0.25Q365.77 0.25 364.72-3.55L364.72-3.55Q363.62-2 361.64-0.7 359.67 0.6 356.67 0.6ZM357.67-3.4L357.67-3.4Q359.52-3.4 361.19-4.28 362.87-5.15 364.02-6.55L364.02-6.55 364.02-19.45Q363.07-20.65 361.37-21.68 359.67-22.7 357.62-22.7L357.62-22.7Q355.22-22.7 353.42-21.4 351.62-20.1 350.64-17.93 349.67-15.75 349.67-13L349.67-13Q349.67-10.25 350.72-8.08 351.77-5.9 353.59-4.65 355.42-3.4 357.67-3.4ZM404.16 0.6L404.16 0.6Q401.91 0.6 399.94-0.23 397.96-1.05 396.66-2.15L396.66-2.15 396.66 0 392.46 0 392.46-37 396.96-37 396.96-23.3Q397.96-24.45 399.89-25.53 401.81-26.6 404.46-26.6L404.46-26.6Q407.46-26.6 410.09-25.03 412.71-23.45 414.31-20.48 415.91-17.5 415.91-13.25L415.91-13.25Q415.91-10.15 414.91-7.6 413.91-5.05 412.24-3.23 410.56-1.4 408.46-0.4 406.36 0.6 404.16 0.6ZM402.96-3.4L402.96-3.4Q405.41-3.4 407.29-4.6 409.16-5.8 410.24-8 411.31-10.2 411.31-13.1L411.31-13.1Q411.31-16.1 410.24-18.25 409.16-20.4 407.39-21.55 405.61-22.7 403.46-22.7L403.46-22.7Q401.31-22.7 399.59-21.63 397.86-20.55 396.96-19.3L396.96-19.3 396.96-5.4Q398.11-4.5 399.66-3.95 401.21-3.4 402.96-3.4ZM426.66 0L422.16 0 422.16-26 426.66-26 426.66 0ZM424.41-30.45L424.41-30.45Q423.11-30.45 422.18-31.4 421.26-32.35 421.26-33.6L421.26-33.6Q421.26-35.05 422.11-35.9 422.96-36.75 424.41-36.75L424.41-36.75Q425.71-36.75 426.63-35.83 427.56-34.9 427.56-33.6L427.56-33.6Q427.56-32.2 426.71-31.33 425.86-30.45 424.41-30.45ZM439.16 0L434.66 0 434.66-26 439.01-26 439.01-21.65Q440.41-23.75 442.58-25.18 444.76-26.6 447.76-26.6L447.76-26.6Q452.16-26.6 454.33-23.95 456.51-21.3 456.51-16.95L456.51-16.95 456.51 0 452.01 0 452.01-16.45Q452.01-19.25 450.68-20.95 449.36-22.65 447.01-22.65L447.01-22.65Q444.71-22.65 442.66-21.03 440.61-19.4 439.16-17.2L439.16-17.2 439.16 0ZM474.2 0.6L474.2 0.6Q470.95 0.6 468.31-1.05 465.65-2.7 464.08-5.73 462.5-8.75 462.5-12.85L462.5-12.85Q462.5-16.75 464.08-19.85 465.65-22.95 468.43-24.78 471.2-26.6 474.81-26.6L474.81-26.6Q477.06-26.6 478.88-25.83 480.7-25.05 482.06-23.9L482.06-23.9 482.06-26 486.15-26 486.15-6.3Q486.15-4.4 487.08-3.83 488-3.25 489.11-3.25L489.11-3.25 488.15 0.25Q483.36 0.25 482.36-3.65L482.36-3.65Q481.2-2.05 479.23-0.73 477.25 0.6 474.2 0.6ZM475.2-3.4L475.2-3.4Q477.11-3.4 478.81-4.33 480.5-5.25 481.65-6.65L481.65-6.65 481.65-20.6Q480.31-21.55 478.68-22.13 477.06-22.7 475.25-22.7L475.25-22.7Q472.86-22.7 471.03-21.48 469.2-20.25 468.15-18.07 467.11-15.9 467.11-13L467.11-13Q467.11-10.2 468.15-8.03 469.2-5.85 471.06-4.63 472.9-3.4 475.2-3.4ZM499.6 0L495.1 0 495.1-26 499.45-26 499.45-20.35Q500.1-22 501.2-23.43 502.3-24.85 503.95-25.73 505.6-26.6 507.8-26.6L507.8-26.6Q508.55-26.6 509.3-26.53 510.05-26.45 510.55-26.3L510.55-26.3 509.2-21.65Q508.25-22.05 506.95-22.05L506.95-22.05Q505.1-22.05 503.43-21 501.75-19.95 500.68-17.75 499.6-15.55 499.6-12.15L499.6-12.15 499.6 0ZM515.7 11.6L515.7 11.6Q514.2 11.6 513.08 11.3 511.95 11 511.3 10.6L511.3 10.6 512.3 6.85Q512.9 7.2 513.8 7.45 514.7 7.7 515.8 7.7L515.8 7.7Q517.9 7.7 519.55 6.35 521.2 5 522.7 1.05L522.7 1.05 523.85-1.95 521.45-1.95 511.3-24.8 515.3-26.6 525-4.95 532.55-26.4 536.7-24.8 527.15 1.3Q525.7 5.3 524 7.55 522.3 9.8 520.25 10.7 518.2 11.6 515.7 11.6Z" opacity="1" transform="matrix(1,0,0,1,0,0)" fill="#332885" class="slogan-text-1" data-fill-palette-color="secondary" id="text-1"></path></svg></g></svg></g></svg></g></svg></g><g><svg viewBox="0 0 96.80382529655628 103.07715397438352" height="103.07715397438352" width="96.80382529655628"><g><svg xmlns="http://www.w3.org/2000/svg" xmlns:xlink="http://www.w3.org/1999/xlink" version="1.1" x="0" y="0" viewBox="37.18 23 437.639 466" style="enable-background:new 0 0 512 512;" xml:space="preserve" height="103.07715397438352" width="96.80382529655628" class="icon-icon-0" data-fill-palette-color="accent" id="icon-0"><g fill="#332885" data-fill-palette-color="accent"><g fill="#332885" data-fill-palette-color="accent"><g fill="#332885" data-fill-palette-color="accent"><g fill="#332885" data-fill-palette-color="accent"><path d="M464.99 456.25H122.07C121.29 456.25 120.51 455.93 119.95 455.37A3.02 3.02 0 0 1 119.07 453.25L119.08 446.17A2.994 2.994 0 1 1 125.07 446.17V450.25H461.99V196.94A3 3 0 0 1 467.99 196.93V453.25C467.99 454.05 467.679 454.81 467.109 455.37A2.97 2.97 0 0 1 464.99 456.25M122.07 429.16A3 3 0 0 1 119.07 426.17C119.07 424.51 120.42 423.17 122.07 423.17A2.996 2.996 0 1 1 122.07 429.16M122.07 409.17C120.42 409.17 119.07 407.819 119.07 406.17V56.76C119.07 55.96 119.39 55.19 119.95 54.63 120.51 54.08 121.28 53.76 122.07 53.76H122.66A2.996 2.996 0 0 1 125.07 58.54V406.17C125.07 407.819 123.73 409.17 122.07 409.17M464.99 179.97C463.34 179.97 461.99 178.63 461.99 176.97 461.99 175.32 463.34 173.97 464.99 173.97A3.01 3.01 0 0 1 467.99 176.96V176.97C467.99 178.63 466.649 179.97 464.99 179.97M464.99 160C463.34 160 461.99 158.65 461.99 157V147.75L373.99 59.76H162.66C161.01 59.76 159.66 58.41 159.66 56.76 159.66 55.1 161.01 53.76 162.66 53.76H375.23C376.02 53.76 376.8 54.08 377.35 54.64L467.11 144.39C467.68 144.95 467.991 145.71 467.991 146.51V157A3.005 3.005 0 0 1 464.99 160M142.66 59.76C141.01 59.76 139.66 58.41 139.66 56.76 139.66 55.1 141.01 53.76 142.66 53.76 144.32 53.76 145.66 55.1 145.66 56.76 145.66 58.41 144.32 59.76 142.66 59.76" fill="#332885" data-fill-palette-color="accent"></path></g><g fill="#332885" data-fill-palette-color="accent"><path d="M464.99 149.51H375.229C374.45 149.51 373.669 149.19 373.109 148.63 372.559 148.07 372.229 147.3 372.229 146.51V56.76C372.229 55.54 372.959 54.45 374.089 53.98 375.189 53.52 376.509 53.79 377.359 54.63L467.109 144.39C467.969 145.25 468.229 146.53 467.759 147.66A2.98 2.98 0 0 1 464.99 149.51M378.229 143.51H457.75L378.229 64z" fill="#332885" data-fill-palette-color="accent"></path></g><g fill="#332885" data-fill-palette-color="accent"><path d="M122.08 432.12H99.01C98.22 432.12 97.45 431.8 96.89 431.24A3 3 0 0 1 96.01 429.12V102.19C96.01 100.53 97.36 99.19 99.01 99.19S102.01 100.53 102.01 102.19V426.12H119.08V283.37C119.08 281.72 120.42 280.37 122.08 280.37A3 3 0 0 1 125.07 283.37V429.12A2.99 2.99 0 0 1 122.08 432.12M122.08 266.37C120.42 266.37 119.08 265.03 119.08 263.37 119.08 261.72 120.42 260.37 122.08 260.37A3 3 0 0 1 125.07 263.37C125.07 265.03 123.73 266.37 122.08 266.37M122.08 246.37C120.42 246.37 119.08 245.03 119.08 243.37V56.75C119.08 55.96 119.4 55.19 119.95 54.63 120.51 54.08 121.28 53.76 122.08 53.76H285.45C287.109 53.76 288.45 55.1 288.45 56.75 288.45 58.41 287.109 59.76 285.45 59.76H125.07L125.08 243.37C125.08 245.03 123.73 246.37 122.08 246.37M99.01 85.19C97.36 85.19 96.01 83.84 96.01 82.19 96.01 80.53 97.36 79.19 99.01 79.19S102.01 80.53 102.01 82.19C102.01 83.84 100.66 85.19 99.01 85.19M99.01 65.19C97.36 65.19 96.01 63.84 96.01 62.19V40.35C96.01 39.56 96.33 38.79 96.89 38.23S98.22 37.35 99.01 37.35H367.62C369.2 37.35 370.519 38.59 370.609 40.17L371.569 56.58A3.01 3.01 0 0 1 368.579 59.76H325.449C323.799 59.76 322.449 58.41 322.449 56.75A3 3 0 0 1 325.449 53.76H365.398L364.789 43.35H102.01V62.19C102.01 63.84 100.67 65.19 99.01 65.19M305.46 59.76C303.8 59.76 302.46 58.41 302.46 56.75 302.46 55.1 303.8 53.76 305.46 53.76 307.109 53.76 308.45 55.1 308.45 56.75 308.45 58.41 307.109 59.76 305.46 59.76" fill="#332885" data-fill-palette-color="accent"></path></g><g fill="#332885" data-fill-palette-color="accent"><path d="M380.87 472.93H53.08C51.43 472.93 50.08 471.59 50.08 469.93 50.08 468.281 51.43 466.93 53.08 466.93H380.87C382.519 466.93 383.87 468.281 383.87 469.93 383.87 471.59 382.52 472.93 380.87 472.93" fill="#332885" data-fill-palette-color="accent"></path></g><g fill="#332885" data-fill-palette-color="accent"><path d="M471.819 489H245.02C243.36 489 242.02 487.649 242.02 486 242.02 484.34 243.36 483 245.02 483H471.819C473.479 483 474.819 484.34 474.819 486 474.819 487.649 473.479 489 471.819 489" fill="#332885" data-fill-palette-color="accent"></path></g><g fill="#332885" data-fill-palette-color="accent"><path d="M147.64 488.52H40.18C38.52 488.52 37.18 487.17 37.18 485.52 37.18 483.86 38.52 482.52 40.18 482.52H147.64C149.3 482.52 150.64 483.86 150.64 485.52 150.64 487.17 149.3 488.52 147.64 488.52" fill="#332885" data-fill-palette-color="accent"></path></g><g fill="#332885" data-fill-palette-color="accent"><path d="M99.01 417.78H77.93C77.14 417.78 76.37 417.46 75.81 416.899S74.93 415.569 74.93 414.78V85.85C74.93 84.2 76.28 82.85 77.93 82.85 79.59 82.85 80.93 84.2 80.93 85.85V411.78H96.01V253.79C96.01 252.13 97.36 250.79 99.01 250.79S102.01 252.13 102.01 253.79V414.78C102.01 415.58 101.7 416.33 101.13 416.899A2.97 2.97 0 0 1 99.01 417.78M99.01 236.78C97.36 236.78 96.01 235.44 96.01 233.78A3 3 0 0 1 102.01 233.78C102.01 235.44 100.66 236.78 99.01 236.78M99.01 216.79C97.36 216.79 96.01 215.44 96.01 213.78V40.35C96.01 39.56 96.33 38.79 96.89 38.23S98.22 37.35 99.01 37.35H275.57C277.23 37.35 278.57 38.7 278.57 40.35S277.23 43.35 275.57 43.35H102.01V213.78A3.01 3.01 0 0 1 99.01 216.79M77.93 68.85C76.28 68.85 74.93 67.51 74.93 65.85 74.93 64.2 76.28 62.85 77.93 62.85 79.59 62.85 80.93 64.2 80.93 65.85 80.93 67.51 79.59 68.85 77.93 68.85M77.93 48.85C76.28 48.85 74.93 47.51 74.93 45.85V26C74.93 25.21 75.25 24.44 75.81 23.88S77.14 23 77.93 23H354.23A3.01 3.01 0 0 1 357.23 25.83L358.05 40.18C358.1 41 357.8 41.81 357.24 42.41 356.67 43.01 355.88 43.35 355.059 43.35H315.569C313.92 43.35 312.569 42 312.569 40.35S313.92 37.35 315.569 37.35H351.88L351.4 29H80.93V45.85C80.93 47.51 79.59 48.85 77.93 48.85M295.569 43.35C293.92 43.35 292.569 42 292.569 40.35S293.92 37.35 295.569 37.35C297.229 37.35 298.569 38.7 298.569 40.35S297.229 43.35 295.569 43.35" fill="#332885" data-fill-palette-color="accent"></path></g><g fill="#332885" data-fill-palette-color="accent"><path d="M177.88 140C173.63 140 169.55 137.73 166.68 133.77 163.96 130.03 162.46 125.12 162.46 119.95 162.46 114.76 163.96 109.84 166.68 106.09 169.55 102.13 173.63 99.85 177.88 99.85 182.15 99.85 186.24 102.13 189.11 106.09 191.83 109.83 193.33 114.76 193.34 119.95 193.33 125.12 191.83 130.03 189.11 133.77 186.23 137.73 182.14 140 177.88 140M177.88 105.85C175.58 105.85 173.32 107.19 171.53 109.63 169.57 112.31 168.45 116.07 168.46 119.95 168.45 123.81 169.57 127.56 171.53 130.23 173.32 132.66 175.57 134 177.87 134H177.89C180.24 134 182.44 132.7 184.26 130.23 186.22 127.56 187.35 123.81 187.34 119.95 187.35 116.06 186.22 112.3 184.26 109.63 182.44 107.16 180.23 105.85 177.89 105.85z" fill="#332885" data-fill-palette-color="accent"></path></g><g fill="#332885" data-fill-palette-color="accent"><path d="M145.14 140.14C143.48 140.14 142.14 138.79 142.14 137.14V102.72C142.14 101.06 143.48 99.71 145.14 99.71 146.79 99.71 148.14 101.06 148.14 102.72V137.14C148.14 138.79 146.79 140.14 145.14 140.14" fill="#332885" data-fill-palette-color="accent"></path></g><g fill="#332885" data-fill-palette-color="accent"><path d="M238.67 140C234.4 140 230.32 137.73 227.45 133.77 224.74 130.03 223.25 125.12 223.24 119.95 223.25 114.76 224.74 109.84 227.45 106.1 230.31 102.13 234.4 99.85 238.67 99.85 242.93 99.85 247.02 102.13 249.88 106.1 252.59 109.84 254.09 114.76 254.09 119.95 254.09 125.12 252.59 130.03 249.88 133.77 247.01 137.73 242.93 140 238.67 140M238.67 105.85C236.32 105.85 234.12 107.16 232.31 109.62 230.35 112.3 229.23 116.06 229.24 119.95 229.23 123.81 230.35 127.56 232.31 130.24 234.12 132.7 236.32 134 238.66 134 241.02 134 243.21 132.7 245.03 130.23 246.98 127.56 248.1 123.81 248.09 119.95 248.1 116.06 246.98 112.3 245.02 109.62 243.21 107.16 241.02 105.85 238.67 105.85" fill="#332885" data-fill-palette-color="accent"></path></g><g fill="#332885" data-fill-palette-color="accent"><path d="M205.89 140.14C204.23 140.14 202.89 138.79 202.89 137.14V102.72C202.89 101.06 204.23 99.71 205.89 99.71 207.54 99.71 208.89 101.06 208.89 102.72V137.14C208.89 138.79 207.54 140.14 205.89 140.14" fill="#332885" data-fill-palette-color="accent"></path></g><g fill="#332885" data-fill-palette-color="accent"><path d="M299.42 140C295.149 140 291.069 137.73 288.21 133.77 285.5 130.03 284 125.12 283.99 119.95 284 114.75 285.49 109.84 288.2 106.1 291.069 102.13 295.149 99.85 299.42 99.85 303.7 99.85 307.79 102.13 310.66 106.09 313.37 109.83 314.87 114.75 314.87 119.95 314.87 125.12 313.37 130.03 310.66 133.77 307.79 137.73 303.7 140 299.42 140M299.42 105.85C297.069 105.85 294.87 107.16 293.06 109.62 291.1 112.3 289.991 116.06 289.991 119.95 289.991 123.82 291.1 127.57 293.06 130.23 294.871 132.7 297.07 134 299.42 134 301.78 134 303.99 132.7 305.81 130.23 307.76 127.57 308.88 123.82 308.871 119.95 308.881 116.06 307.761 112.3 305.81 109.62 303.99 107.16 301.78 105.85 299.42 105.85" fill="#332885" data-fill-palette-color="accent"></path></g><g fill="#332885" data-fill-palette-color="accent"><path d="M266.67 140.14C265.02 140.14 263.67 138.79 263.67 137.14V102.71A3 3 0 0 1 266.67 99.72C268.33 99.72 269.67 101.06 269.67 102.71V137.14C269.67 138.79 268.33 140.14 266.67 140.14" fill="#332885" data-fill-palette-color="accent"></path></g><g fill="#332885" data-fill-palette-color="accent"><path d="M327.43 140.14C325.77 140.14 324.43 138.79 324.43 137.14V102.72C324.43 101.06 325.77 99.72 327.43 99.72 329.08 99.72 330.43 101.06 330.43 102.72V137.14C330.43 138.79 329.08 140.14 327.43 140.14" fill="#332885" data-fill-palette-color="accent"></path></g><g fill="#332885" data-fill-palette-color="accent"><path d="M177.88 208.34C173.63 208.34 169.55 206.07 166.68 202.11 163.96 198.36 162.46 193.45 162.46 188.28 162.46 183.1 163.96 178.18 166.68 174.43 169.55 170.47 173.63 168.19 177.88 168.19 182.15 168.19 186.24 170.46 189.11 174.43 191.83 178.17 193.33 183.09 193.34 188.28 193.33 193.46 191.83 198.37 189.11 202.11 186.24 206.07 182.14 208.34 177.88 208.34M177.88 174.19C175.58 174.19 173.32 175.53 171.53 177.96 169.57 180.64 168.45 184.41 168.46 188.28 168.45 192.15 169.57 195.89 171.53 198.57 173.32 201 175.57 202.34 177.87 202.34H177.89C180.24 202.34 182.44 201.03 184.26 198.57 186.22 195.9 187.35 192.15 187.34 188.28 187.35 184.4 186.22 180.64 184.26 177.96 182.44 175.49 180.24 174.19 177.89 174.19z" fill="#332885" data-fill-palette-color="accent"></path></g><g fill="#332885" data-fill-palette-color="accent"><path d="M145.14 208.48C143.48 208.48 142.14 207.13 142.14 205.48V171.05C142.14 169.4 143.48 168.05 145.14 168.05 146.79 168.05 148.14 169.4 148.14 171.05V205.48C148.14 207.13 146.79 208.48 145.14 208.48" fill="#332885" data-fill-palette-color="accent"></path></g><g fill="#332885" data-fill-palette-color="accent"><path d="M238.67 208.34C234.4 208.34 230.32 206.07 227.45 202.1 224.74 198.36 223.25 193.46 223.24 188.28 223.25 183.09 224.74 178.18 227.45 174.43 230.31 170.46 234.4 168.19 238.67 168.19 242.93 168.19 247.02 170.46 249.88 174.43 252.59 178.18 254.09 183.09 254.09 188.28 254.09 193.46 252.59 198.36 249.88 202.1 247.01 206.07 242.93 208.34 238.67 208.34M238.67 174.19C236.32 174.19 234.12 175.49 232.31 177.96 230.35 180.63 229.23 184.4 229.24 188.28 229.23 192.15 230.35 195.9 232.31 198.57 234.12 201.04 236.32 202.34 238.66 202.34 241.02 202.34 243.21 201.04 245.03 198.57 246.98 195.9 248.1 192.15 248.09 188.28 248.1 184.4 246.98 180.63 245.02 177.96 243.21 175.49 241.01 174.19 238.67 174.19" fill="#332885" data-fill-palette-color="accent"></path></g><g fill="#332885" data-fill-palette-color="accent"><path d="M205.89 208.48C204.23 208.48 202.89 207.13 202.89 205.48V171.05C202.89 169.4 204.23 168.05 205.89 168.05 207.54 168.05 208.89 169.4 208.89 171.05V205.48C208.89 207.13 207.54 208.48 205.89 208.48" fill="#332885" data-fill-palette-color="accent"></path></g><g fill="#332885" data-fill-palette-color="accent"><path d="M299.42 208.34C295.149 208.34 291.069 206.06 288.21 202.1 285.5 198.36 284 193.46 283.99 188.28 284 183.09 285.49 178.17 288.2 174.43 291.059 170.46 295.149 168.19 299.42 168.19 303.7 168.19 307.8 170.46 310.66 174.43 313.37 178.17 314.87 183.09 314.87 188.28 314.87 193.46 313.37 198.37 310.66 202.1 307.79 206.07 303.689 208.34 299.42 208.34M299.42 174.19C297.069 174.19 294.87 175.49 293.06 177.96 291.1 180.63 289.991 184.39 289.991 188.28 289.991 192.15 291.1 195.9 293.06 198.57 294.871 201.04 297.07 202.34 299.42 202.34 301.78 202.34 303.99 201.04 305.81 198.57 307.76 195.91 308.88 192.16 308.871 188.28 308.881 184.4 307.761 180.63 305.81 177.96 303.99 175.49 301.78 174.19 299.42 174.19" fill="#332885" data-fill-palette-color="accent"></path></g><g fill="#332885" data-fill-palette-color="accent"><path d="M266.67 208.48C265.02 208.48 263.67 207.13 263.67 205.48V171.05C263.67 169.4 265.02 168.05 266.67 168.05 268.33 168.05 269.67 169.4 269.67 171.05V205.48C269.67 207.13 268.33 208.48 266.67 208.48" fill="#332885" data-fill-palette-color="accent"></path></g><g fill="#332885" data-fill-palette-color="accent"><path d="M360.21 208.34C355.939 208.34 351.85 206.06 348.99 202.1 346.28 198.37 344.79 193.46 344.78 188.28 344.79 183.09 346.28 178.17 348.99 174.43 351.849 170.46 355.939 168.19 360.21 168.19 364.47 168.19 368.56 170.47 371.42 174.43 374.13 178.17 375.62 183.09 375.63 188.28 375.62 193.46 374.13 198.36 371.41 202.1 368.55 206.06 364.47 208.34 360.21 208.34M360.21 174.19C357.859 174.19 355.66 175.49 353.84 177.96 351.89 180.63 350.77 184.4 350.78 188.28 350.769 192.15 351.889 195.9 353.84 198.57 355.66 201.04 357.86 202.34 360.21 202.34 362.55 202.34 364.75 201.04 366.569 198.57 368.519 195.9 369.63 192.15 369.63 188.28 369.63 184.4 368.52 180.63 366.56 177.96 364.75 175.49 362.56 174.19 360.21 174.19" fill="#332885" data-fill-palette-color="accent"></path></g><g fill="#332885" data-fill-palette-color="accent"><path d="M327.43 208.48C325.77 208.48 324.43 207.13 324.43 205.48V171.05C324.43 169.4 325.77 168.05 327.43 168.05 329.08 168.05 330.43 169.4 330.43 171.05V205.48C330.43 207.13 329.08 208.48 327.43 208.48" fill="#332885" data-fill-palette-color="accent"></path></g><g fill="#332885" data-fill-palette-color="accent"><path d="M420.99 208.34C416.729 208.34 412.63 206.07 409.76 202.11 407.04 198.37 405.54 193.46 405.531 188.28 405.541 183.09 407.041 178.17 409.76 174.43 412.63 170.46 416.73 168.19 420.99 168.19S429.34 170.46 432.2 174.43C434.91 178.17 436.41 183.09 436.41 188.28 436.41 193.46 434.91 198.37 432.2 202.1 429.34 206.07 425.25 208.34 420.99 208.34M420.99 174.19C418.63 174.19 416.429 175.49 414.609 177.96 412.649 180.64 411.519 184.4 411.53 188.28 411.519 192.15 412.649 195.89 414.609 198.57 416.399 201 418.67 202.34 420.979 202.34 423.339 202.34 425.54 201.04 427.349 198.57 429.299 195.9 430.419 192.15 430.41 188.28 430.42 184.4 429.3 180.63 427.349 177.96 425.54 175.49 423.34 174.19 420.99 174.19" fill="#332885" data-fill-palette-color="accent"></path></g><g fill="#332885" data-fill-palette-color="accent"><path d="M388.21 208.48C386.56 208.48 385.21 207.13 385.21 205.48V171.05C385.21 169.4 386.56 168.05 388.21 168.05S391.21 169.4 391.21 171.05V205.48C391.21 207.13 389.859 208.48 388.21 208.48" fill="#332885" data-fill-palette-color="accent"></path></g><g fill="#332885" data-fill-palette-color="accent"><path d="M177.88 276.68C173.63 276.67 169.55 274.4 166.68 270.44 163.96 266.701 162.46 261.791 162.46 256.62 162.46 251.43 163.96 246.51 166.68 242.77 169.55 238.8 173.63 236.53 177.88 236.53 182.15 236.53 186.24 238.8 189.11 242.76 191.83 246.51 193.34 251.43 193.34 256.62 193.34 261.79 191.83 266.701 189.11 270.44 186.23 274.399 182.14 276.67 177.88 276.68M177.88 242.52C175.58 242.52 173.32 243.86 171.53 246.3 169.57 248.98 168.45 252.74 168.46 256.62 168.45 260.48 169.57 264.23 171.53 266.911 173.32 269.341 175.58 270.681 177.88 270.681 180.24 270.681 182.44 269.371 184.26 266.901 186.22 264.231 187.35 260.481 187.34 256.621 187.35 252.741 186.22 248.981 184.26 246.301 182.44 243.83 180.23 242.52 177.88 242.52" fill="#332885" data-fill-palette-color="accent"></path></g><g fill="#332885" data-fill-palette-color="accent"><path d="M145.14 276.81C143.48 276.81 142.14 275.47 142.14 273.81V239.39C142.14 237.73 143.48 236.39 145.14 236.39 146.79 236.39 148.14 237.73 148.14 239.39V273.81C148.14 275.47 146.79 276.81 145.14 276.81" fill="#332885" data-fill-palette-color="accent"></path></g><g fill="#332885" data-fill-palette-color="accent"><path d="M238.67 276.68C234.4 276.67 230.32 274.4 227.45 270.44 224.74 266.701 223.25 261.791 223.24 256.62 223.25 251.43 224.74 246.51 227.45 242.77 230.32 238.8 234.4 236.53 238.67 236.53 242.93 236.53 247.02 238.8 249.88 242.77 252.59 246.51 254.08 251.43 254.09 256.62 254.08 261.79 252.59 266.701 249.88 270.44 247.02 274.399 242.93 276.67 238.67 276.68M238.67 242.52C236.32 242.52 234.12 243.83 232.31 246.29 230.35 248.97 229.24 252.73 229.24 256.62 229.24 260.48 230.35 264.241 232.3 266.911 234.12 269.371 236.32 270.681 238.66 270.681 241.02 270.681 243.21 269.371 245.03 266.911 246.98 264.241 248.1 260.48 248.09 256.62 248.1 252.73 246.98 248.97 245.03 246.29 243.21 243.83 241.01 242.52 238.67 242.52" fill="#332885" data-fill-palette-color="accent"></path></g><g fill="#332885" data-fill-palette-color="accent"><path d="M205.89 276.81C204.23 276.81 202.89 275.47 202.89 273.81V239.39C202.89 237.73 204.23 236.39 205.89 236.39 207.54 236.39 208.89 237.73 208.89 239.39V273.81C208.89 275.47 207.54 276.81 205.89 276.81" fill="#332885" data-fill-palette-color="accent"></path></g><g fill="#332885" data-fill-palette-color="accent"><path d="M299.42 276.68C295.149 276.67 291.069 274.4 288.21 270.44 285.5 266.701 284 261.791 283.99 256.62 284 251.43 285.49 246.51 288.2 242.77 291.059 238.8 295.149 236.52 299.42 236.52 303.7 236.52 307.79 238.8 310.66 242.77 313.37 246.51 314.87 251.42 314.87 256.62 314.87 261.8 313.37 266.71 310.66 270.44 307.79 274.399 303.689 276.68 299.42 276.68M299.42 242.52C297.069 242.52 294.87 243.83 293.06 246.3 291.1 248.97 289.991 252.73 289.991 256.62 289.991 260.491 291.1 264.241 293.06 266.911 294.871 269.371 297.07 270.681 299.42 270.681 301.78 270.681 303.99 269.371 305.81 266.911 307.76 264.241 308.88 260.491 308.871 256.62 308.881 252.73 307.761 248.97 305.81 246.3 303.99 243.83 301.78 242.52 299.42 242.52" fill="#332885" data-fill-palette-color="accent"></path></g><g fill="#332885" data-fill-palette-color="accent"><path d="M266.67 276.81C265.02 276.81 263.67 275.47 263.67 273.81V239.39C263.67 237.73 265.02 236.39 266.67 236.39 268.33 236.39 269.67 237.73 269.67 239.39V273.81C269.67 275.47 268.33 276.81 266.67 276.81" fill="#332885" data-fill-palette-color="accent"></path></g><g fill="#332885" data-fill-palette-color="accent"><path d="M360.21 276.68C355.939 276.67 351.85 274.4 348.99 270.44 346.28 266.701 344.79 261.791 344.78 256.62 344.79 251.43 346.28 246.51 348.99 242.77 351.849 238.8 355.939 236.52 360.21 236.52 364.47 236.52 368.56 238.8 371.42 242.77 374.13 246.51 375.62 251.43 375.63 256.62 375.62 261.79 374.13 266.701 371.41 270.44 368.56 274.399 364.47 276.67 360.21 276.68M360.21 242.52C357.85 242.52 355.66 243.83 353.84 246.3 351.89 248.97 350.77 252.73 350.78 256.62 350.769 260.491 351.889 264.23 353.84 266.911 355.66 269.371 357.85 270.681 360.2 270.681S364.75 269.371 366.569 266.911C368.519 264.23 369.63 260.48 369.63 256.62 369.63 252.73 368.52 248.97 366.56 246.3 364.75 243.83 362.56 242.52 360.21 242.52" fill="#332885" data-fill-palette-color="accent"></path></g><g fill="#332885" data-fill-palette-color="accent"><path d="M327.43 276.81C325.77 276.81 324.43 275.47 324.43 273.81V239.39C324.43 237.73 325.77 236.39 327.43 236.39 329.08 236.39 330.43 237.73 330.43 239.39V273.81C330.43 275.47 329.08 276.81 327.43 276.81" fill="#332885" data-fill-palette-color="accent"></path></g><g fill="#332885" data-fill-palette-color="accent"><path d="M420.99 276.68C416.729 276.67 412.63 274.4 409.76 270.44 407.04 266.701 405.54 261.791 405.531 256.62 405.541 251.43 407.041 246.51 409.76 242.76 412.63 238.8 416.72 236.53 420.99 236.52 425.25 236.53 429.34 238.8 432.2 242.77 434.91 246.51 436.41 251.43 436.41 256.62 436.41 261.79 434.91 266.701 432.2 270.44 429.34 274.399 425.25 276.67 420.99 276.68M420.99 242.52C418.639 242.52 416.429 243.83 414.609 246.3 412.649 248.98 411.519 252.74 411.53 256.62 411.519 260.48 412.649 264.23 414.609 266.9 416.429 269.371 418.639 270.68 420.99 270.68S425.54 269.37 427.349 266.91C429.299 264.229 430.419 260.479 430.41 256.619 430.42 252.729 429.3 248.969 427.349 246.289 425.54 243.83 423.34 242.52 420.99 242.52" fill="#332885" data-fill-palette-color="accent"></path></g><g fill="#332885" data-fill-palette-color="accent"><path d="M388.21 276.81C386.56 276.81 385.21 275.47 385.21 273.81V239.39C385.21 237.73 386.56 236.39 388.21 236.39S391.21 237.73 391.21 239.39V273.81C391.21 275.47 389.859 276.81 388.21 276.81" fill="#332885" data-fill-palette-color="accent"></path></g><g fill="#332885" data-fill-palette-color="accent"><path d="M177.88 345.01C173.63 345.01 169.55 342.74 166.68 338.77 163.96 335.02 162.46 330.1 162.46 324.92 162.46 319.75 163.96 314.84 166.68 311.1 169.55 307.14 173.63 304.86 177.88 304.86 182.14 304.86 186.23 307.131 189.11 311.09 191.83 314.84 193.34 319.75 193.34 324.92 193.34 330.109 191.83 335.03 189.11 338.77 186.24 342.74 182.15 345.01 177.88 345.01M177.88 310.859C175.58 310.859 173.32 312.2 171.53 314.63 169.57 317.3 168.45 321.06 168.46 324.92 168.45 328.8 169.57 332.56 171.53 335.24 173.32 337.67 175.58 339.01 177.88 339.01 180.23 339.01 182.44 337.71 184.26 335.24 186.22 332.559 187.35 328.8 187.34 324.92 187.35 321.06 186.22 317.31 184.26 314.63 182.47 312.2 180.2 310.859 177.89 310.859z" fill="#332885" data-fill-palette-color="accent"></path></g><g fill="#332885" data-fill-palette-color="accent"><path d="M145.14 345.149C143.48 345.149 142.14 343.799 142.14 342.149V307.719C142.14 306.069 143.48 304.719 145.14 304.719 146.79 304.719 148.14 306.069 148.14 307.719V342.149C148.14 343.8 146.79 345.149 145.14 345.149" fill="#332885" data-fill-palette-color="accent"></path></g><g fill="#332885" data-fill-palette-color="accent"><path d="M238.67 345.01C234.4 345.01 230.31 342.73 227.45 338.77 224.74 335.031 223.25 330.11 223.24 324.92 223.25 319.75 224.74 314.84 227.46 311.1 230.32 307.14 234.4 304.86 238.67 304.86 242.93 304.86 247.02 307.14 249.88 311.1 252.59 314.83 254.08 319.741 254.09 324.92 254.08 330.109 252.59 335.03 249.88 338.77 247.02 342.729 242.93 345.01 238.67 345.01M238.67 310.859C236.32 310.859 234.12 312.16 232.3 314.63 230.35 317.3 229.24 321.05 229.24 324.92 229.24 328.81 230.35 332.569 232.31 335.24 234.12 337.71 236.32 339.01 238.67 339.01 241.01 339.01 243.21 337.71 245.02 335.24 246.98 332.569 248.1 328.809 248.09 324.92 248.1 321.05 246.98 317.3 245.03 314.63 243.21 312.16 241.02 310.859 238.67 310.859" fill="#332885" data-fill-palette-color="accent"></path></g><g fill="#332885" data-fill-palette-color="accent"><path d="M205.89 345.149C204.24 345.149 202.89 343.799 202.89 342.149V307.719C202.89 306.069 204.24 304.719 205.89 304.719S208.89 306.069 208.89 307.719V342.149C208.89 343.8 207.54 345.149 205.89 345.149" fill="#332885" data-fill-palette-color="accent"></path></g><g fill="#332885" data-fill-palette-color="accent"><path d="M299.42 345.01C295.149 345.01 291.06 342.74 288.2 338.77 285.5 335.031 284 330.11 283.99 324.92 284 319.74 285.5 314.84 288.21 311.1 291.069 307.14 295.149 304.86 299.42 304.86 303.69 304.86 307.79 307.131 310.66 311.1 313.37 314.83 314.87 319.741 314.87 324.92 314.87 330.109 313.37 335.03 310.66 338.77 307.8 342.74 303.7 345.01 299.42 345.01M299.42 310.859C297.069 310.859 294.87 312.16 293.06 314.63 291.1 317.3 289.991 321.05 289.991 324.92 289.991 328.81 291.1 332.569 293.06 335.24 294.871 337.71 297.07 339.01 299.42 339.01 301.78 339.01 303.99 337.71 305.81 335.24 307.76 332.569 308.88 328.809 308.871 324.92 308.881 321.05 307.761 317.3 305.81 314.63 303.99 312.16 301.78 310.859 299.42 310.859" fill="#332885" data-fill-palette-color="accent"></path></g><g fill="#332885" data-fill-palette-color="accent"><path d="M266.67 345.149C265.02 345.149 263.67 343.799 263.67 342.149V307.719C263.67 306.069 265.02 304.719 266.67 304.719 268.33 304.719 269.67 306.069 269.67 307.719V342.149C269.67 343.8 268.33 345.149 266.67 345.149" fill="#332885" data-fill-palette-color="accent"></path></g><g fill="#332885" data-fill-palette-color="accent"><path d="M360.21 345.01C355.939 345.01 351.85 342.74 348.99 338.77 346.28 335.031 344.79 330.11 344.78 324.92 344.79 319.74 346.28 314.83 348.99 311.1 351.849 307.13 355.939 304.86 360.21 304.86 364.47 304.86 368.55 307.131 371.42 311.1 374.13 314.84 375.62 319.741 375.63 324.92 375.62 330.109 374.13 335.03 371.42 338.77 368.55 342.74 364.47 345.01 360.21 345.01M360.21 310.859C357.859 310.859 355.66 312.16 353.84 314.63 351.89 317.3 350.77 321.05 350.78 324.92 350.769 328.81 351.889 332.569 353.84 335.24 355.66 337.71 357.86 339.01 360.21 339.01 362.55 339.01 364.75 337.71 366.56 335.24 368.52 332.569 369.63 328.8 369.63 324.92 369.63 321.05 368.52 317.3 366.569 314.63 364.75 312.16 362.55 310.859 360.21 310.859" fill="#332885" data-fill-palette-color="accent"></path></g><g fill="#332885" data-fill-palette-color="accent"><path d="M327.43 345.149C325.77 345.149 324.43 343.799 324.43 342.149V307.719C324.43 306.069 325.77 304.719 327.43 304.719A3 3 0 0 1 330.42 307.719V342.149A3 3 0 0 1 327.43 345.149" fill="#332885" data-fill-palette-color="accent"></path></g><g fill="#332885" data-fill-palette-color="accent"><path d="M420.99 345.01C416.729 345.01 412.63 342.74 409.76 338.77 407.04 335.031 405.54 330.11 405.531 324.92 405.541 319.74 407.041 314.83 409.76 311.09 412.63 307.13 416.73 304.86 420.99 304.86S429.34 307.14 432.2 311.1C434.91 314.83 436.41 319.741 436.41 324.92 436.41 330.109 434.91 335.03 432.2 338.77 429.34 342.74 425.25 345.01 420.99 345.01M420.99 310.859C418.639 310.859 416.429 312.17 414.609 314.63 412.649 317.31 411.519 321.05 411.53 324.92 411.519 328.8 412.649 332.56 414.609 335.24 416.429 337.71 418.63 339.01 420.979 339.01H421C423.34 339.01 425.54 337.71 427.35 335.24 429.3 332.569 430.42 328.809 430.411 324.92 430.421 321.05 429.301 317.3 427.35 314.63 425.54 312.16 423.34 310.859 420.99 310.859" fill="#332885" data-fill-palette-color="accent"></path></g><g fill="#332885" data-fill-palette-color="accent"><path d="M388.21 345.149C386.56 345.149 385.21 343.799 385.21 342.149V307.719C385.21 306.069 386.56 304.719 388.21 304.719S391.21 306.069 391.21 307.719V342.149C391.21 343.8 389.859 345.149 388.21 345.149" fill="#332885" data-fill-palette-color="accent"></path></g><g fill="#332885" data-fill-palette-color="accent"><path d="M177.88 413.35C173.63 413.35 169.55 411.07 166.68 407.11 163.96 403.36 162.46 398.44 162.46 393.26 162.46 388.09 163.96 383.18 166.69 379.43 169.55 375.47 173.63 373.201 177.88 373.201 182.14 373.201 186.23 375.471 189.11 379.43 191.83 383.17 193.34 388.08 193.34 393.26S191.83 403.36 189.11 407.11C186.24 411.069 182.14 413.35 177.88 413.35M177.88 379.2C175.58 379.2 173.32 380.54 171.53 382.97 169.57 385.64 168.45 389.39 168.46 393.26 168.45 397.14 169.57 400.9 171.53 403.58 173.32 406.01 175.57 407.35 177.88 407.35 180.23 407.35 182.44 406.04 184.26 403.57 186.22 400.9 187.35 397.14 187.34 393.26 187.35 389.39 186.22 385.64 184.26 382.97 182.44 380.5 180.23 379.2 177.88 379.2" fill="#332885" data-fill-palette-color="accent"></path></g><g fill="#332885" data-fill-palette-color="accent"><path d="M145.14 413.45C143.48 413.45 142.14 412.109 142.14 410.45V376.06C142.14 374.411 143.48 373.06 145.14 373.06 146.79 373.06 148.14 374.411 148.14 376.06V410.451A3.003 3.003 0 0 1 145.14 413.45" fill="#332885" data-fill-palette-color="accent"></path></g><g fill="#332885" data-fill-palette-color="accent"><path d="M238.67 413.35C234.4 413.35 230.32 411.07 227.45 407.1 224.74 403.36 223.25 398.451 223.24 393.26 223.25 388.08 224.74 383.17 227.45 379.44 230.32 375.47 234.4 373.201 238.67 373.201 242.93 373.201 247.01 375.471 249.88 379.44 252.59 383.17 254.08 388.081 254.09 393.26 254.08 398.45 252.59 403.36 249.88 407.1 247.02 411.069 242.93 413.35 238.67 413.35M238.67 379.2C236.32 379.2 234.12 380.5 232.3 382.97 230.35 385.63 229.24 389.39 229.24 393.26 229.24 397.14 230.35 400.9 232.31 403.58 234.12 406.04 236.32 407.35 238.67 407.35 241.01 407.35 243.21 406.04 245.02 403.58 246.98 400.899 248.1 397.14 248.09 393.26 248.1 389.39 246.98 385.64 245.03 382.97 243.21 380.5 241.01 379.2 238.67 379.2" fill="#332885" data-fill-palette-color="accent"></path></g><g fill="#332885" data-fill-palette-color="accent"><path d="M205.89 413.45C204.23 413.45 202.89 412.109 202.89 410.45V376.06C202.89 374.411 204.23 373.06 205.89 373.06 207.54 373.06 208.89 374.411 208.89 376.06V410.451A3.003 3.003 0 0 1 205.89 413.45" fill="#332885" data-fill-palette-color="accent"></path></g><g fill="#332885" data-fill-palette-color="accent"><path d="M299.42 413.35C295.149 413.35 291.069 411.07 288.2 407.1 285.49 403.36 284 398.451 283.99 393.26 284 388.08 285.49 383.17 288.21 379.44 291.069 375.47 295.16 373.201 299.42 373.201 303.69 373.201 307.79 375.471 310.66 379.43 313.37 383.17 314.87 388.08 314.87 393.26 314.87 398.45 313.37 403.37 310.66 407.11 307.8 411.069 303.7 413.35 299.42 413.35M299.42 379.2C297.069 379.2 294.87 380.5 293.06 382.97 291.1 385.64 289.991 389.39 289.991 393.26 289.991 397.14 291.1 400.9 293.06 403.58 294.871 406.04 297.07 407.35 299.42 407.35 301.78 407.35 303.99 406.04 305.81 403.58 307.76 400.899 308.88 397.14 308.88 393.26 308.88 389.39 307.76 385.63 305.81 382.97 303.99 380.5 301.78 379.2 299.42 379.2" fill="#332885" data-fill-palette-color="accent"></path></g><g fill="#332885" data-fill-palette-color="accent"><path d="M266.67 413.45C265.02 413.45 263.67 412.109 263.67 410.45V376.06C263.67 374.411 265.02 373.06 266.67 373.06 268.33 373.06 269.67 374.411 269.67 376.06V410.451A2.996 2.996 0 0 1 266.67 413.45" fill="#332885" data-fill-palette-color="accent"></path></g><g fill="#332885" data-fill-palette-color="accent"><path d="M360.21 413.35C355.939 413.35 351.85 411.07 348.99 407.1 346.28 403.36 344.79 398.451 344.78 393.26 344.79 388.08 346.28 383.17 348.99 379.44 351.849 375.47 355.939 373.201 360.21 373.201 364.47 373.201 368.55 375.471 371.42 379.44 374.13 383.17 375.62 388.081 375.63 393.26 375.62 398.45 374.13 403.36 371.42 407.1 368.56 411.069 364.47 413.35 360.21 413.35M360.21 379.2C357.859 379.2 355.66 380.5 353.84 382.97 351.89 385.64 350.77 389.39 350.78 393.26 350.769 397.14 351.889 400.9 353.84 403.58 355.66 406.04 357.86 407.35 360.21 407.35 362.55 407.35 364.75 406.04 366.56 403.58 368.52 400.899 369.63 397.14 369.63 393.26 369.63 389.39 368.52 385.64 366.56 382.97 364.75 380.5 362.55 379.2 360.21 379.2" fill="#332885" data-fill-palette-color="accent"></path></g><g fill="#332885" data-fill-palette-color="accent"><path d="M327.43 413.45C325.77 413.45 324.43 412.109 324.43 410.45V376.06C324.43 374.411 325.77 373.06 327.43 373.06 329.08 373.06 330.43 374.411 330.43 376.06V410.451A3.003 3.003 0 0 1 327.43 413.45" fill="#332885" data-fill-palette-color="accent"></path></g><g fill="#332885" data-fill-palette-color="accent"><path d="M420.99 413.35C416.729 413.35 412.63 411.07 409.76 407.11 407.04 403.371 405.54 398.451 405.531 393.26 405.541 388.08 407.041 383.17 409.76 379.43 412.63 375.47 416.73 373.201 420.99 373.201S429.34 375.471 432.2 379.44C434.91 383.17 436.41 388.081 436.41 393.26S434.91 403.36 432.2 407.1C429.34 411.069 425.25 413.35 420.99 413.35M420.99 379.2C418.639 379.2 416.429 380.5 414.609 382.97 412.649 385.64 411.519 389.39 411.53 393.26 411.519 397.14 412.649 400.9 414.609 403.57 416.429 406.041 418.639 407.35 420.99 407.35S425.54 406.04 427.349 403.58C429.299 400.899 430.419 397.14 430.41 393.26 430.42 389.39 429.3 385.64 427.349 382.96 425.54 380.5 423.34 379.2 420.99 379.2" fill="#332885" data-fill-palette-color="accent"></path></g><g fill="#332885" data-fill-palette-color="accent"><path d="M388.21 413.45C386.56 413.45 385.21 412.109 385.21 410.45V376.06C385.21 374.411 386.56 373.06 388.21 373.06S391.21 374.411 391.21 376.06V410.451A3.003 3.003 0 0 1 388.21 413.45" fill="#332885" data-fill-palette-color="accent"></path></g></g></g></g></svg></g></svg></g></svg></g><defs></defs></svg><rect width="395.52" height="78.52843401235937" fill="none" stroke="none" visibility="hidden"></rect></g></svg></g></svg>